# xmcd
#
# Track frame offsets:
#	150
#	11393
#	24008
#	35033
#	47956
#	59551
#	70989
#	83019
#	97397
#	109382
#	120392
#	131087
#
# Disc length: 1913 seconds
#
# Revision: 1
# Processed by: cddbd v1.5.2PL0 Copyright (c) Steve Scherf et al.
# Submitted via: audiograbber 1.83.01
#
DISCID=a507770c
DTITLE=Ernist Tubb - Thanks Alot
DYEAR=1964
DGENRE=Country
TTITLE0=Thanks A Lot
TTITLE1=The Way That You're Living
TTITLE2=The Green Light
TTITLE3=Your Side Of The Story
TTITLE4=There She Goes
TTITLE5=That's All She Wrote
TTITLE6=Steppin' Out
TTITLE7=Stop Me If You've Heard This One Before
TTITLE8=I Almost Lost My Mind
TTITLE9=Big Fool Of The Year
TTITLE10=Take A Letter, Miss Gray
TTITLE11=Lonesome 7-7203
EXTD=
EXTT0=
EXTT1=
EXTT2=
EXTT3=
EXTT4=
EXTT5=
EXTT6=
EXTT7=
EXTT8=
EXTT9=
EXTT10=
EXTT11=
PLAYORDER=
